Coordinates
version=1
nRows=8
nColumns=36
inDegrees=yes

Units are S.I. units (second, meters, Newtons, ...)
If the header above contains a line with 'inDegrees', this indicates whether rotational values are in degrees (yes) or radians (no).

endheader
time	pelvis_tilt	pelvis_list	pelvis_rotation	pelvis_tx	pelvis_ty	pelvis_tz	hip_flexion_r	hip_adduction_r	hip_rotation_r	knee_angle_r	knee_angle_r_beta	ankle_angle_r	subtalar_angle_r	mtp_angle_r	hip_flexion_l	hip_adduction_l	hip_rotation_l	knee_angle_l	knee_angle_l_beta	ankle_angle_l	subtalar_angle_l	mtp_angle_l	lumbar_extension	lumbar_bending	lumbar_rotation	arm_flex_r	arm_add_r	arm_rot_r	elbow_flex_r	pro_sup_r	arm_flex_l	arm_add_l	arm_rot_l	elbow_flex_l	pro_sup_l
      0.00000000	    -10.54052327	     -1.80726832	      1.25831045	      0.56160660	      1.17915609	     -0.15391093	      3.94644294	      1.51468846	    -18.86308038	      6.74815261	      0.11777748	    -36.83922811	    -24.08511928	     -5.80591073	      2.35576989	     -2.33870276	    -10.98340870	      7.32641776	      0.12787011	    -16.65007030	     -4.07431700	     -5.80591073	      2.46732077	      1.25919097	     -2.32620568	     -7.53349128	     -9.63808672	      5.45151804	     25.69509359	     79.60898480	    -16.02999988	    -10.10226819	     -5.34538536	     64.54034651	     83.88166339
      0.01666670	    -10.08852299	     -1.87453639	      0.99432828	      0.56952099	      1.20889127	     -0.17025564	      2.99319106	      1.57426762	    -21.79922018	      5.35673521	      0.09349267	    -38.07070574	    -16.94530453	     -6.57375387	      0.91102587	     -1.44142714	    -12.07555950	      5.61720665	      0.09803875	    -19.61814452	     -1.26437117	     -6.57375387	      2.93983926	      2.30677348	     -2.64704462	     -8.13978020	     -9.58668799	      3.21351575	     24.57625497	     82.83994959	    -14.95661043	     -7.19391214	     -8.12732624	     55.85768984	     86.72860078
      0.03333330	     -9.37984982	     -1.71711222	      1.11276461	      0.58154912	      1.22636120	     -0.16384553	      2.10473717	      1.72918124	    -23.77067983	      6.45947436	      0.11273910	    -39.02475789	    -16.37458028	     -6.71677032	     -0.32619105	     -1.59288672	    -11.88320312	      5.67708847	      0.09908389	    -20.08528649	     -1.59338583	     -6.71677032	      2.73834991	      1.87163419	     -2.23382099	     -8.99724712	     -9.31244277	      3.72836336	     22.58098625	     81.57624228	    -14.59769694	     -8.61448925	     -7.36420816	     47.00644167	     84.81178857
      0.05000000	     -8.49576315	      2.94901302	    -12.49327785	      0.57714536	      1.24300625	     -0.15480594	     -1.83377900	     -1.43425147	    -22.44243562	      1.83789701	      0.03207735	    -49.12470477	    -10.44357142	     -6.95623469	      1.82245493	      6.57056990	     -8.78788610	      7.19041169	      0.12549636	    -21.75690132	    -13.62928319	     -6.95623469	      5.83671290	     -1.39484497	     -6.40327488	    -22.80425055	     -1.36628416	      2.74243732	      4.69400462	     76.26121248	     -7.09773575	      0.78462386	    -12.76224584	     39.60405104	    102.78515252
      0.06666670	     -3.47949109	     12.81612216	    -43.40231305	      0.57661998	      1.25272520	     -0.11810589	      1.41603699	    -14.26236376	    -27.07440717	      0.70817268	      0.01235994	    -49.92088570	      2.10179665	     -7.34798201	     11.54674095	     17.71053500	    -23.73861538	      6.51830783	      0.11376593	    -23.72727773	    -27.44050705	     -7.34798201	     10.23616215	     -5.81997084	    -14.59621659	    -29.35012843	    -22.34742799	     12.59970062	      2.70547602	     60.37521476	      1.51637158	     -1.74807281	     -7.39918079	     25.68922165	    104.04538911
      0.08333330	      8.26580200	     12.65762179	    -72.60633704	      0.53633512	      1.25832682	     -0.10472149	      7.30548086	    -25.38598571	    -39.68126285	      2.22105716	      0.03876476	    -49.93808795	     -1.03655967	     -7.45746789	     15.31044933	     20.02152955	    -39.58957886	      6.56863694	      0.11464434	    -23.95485280	    -34.17495971	     -7.45746789	      5.25291295	     -9.88252248	    -11.56933411	    -16.16699003	    -43.70226247	     34.45051416	      6.12336030	     62.74845904	      6.63832174	    -15.56782753	     23.54682460	     18.33640214	     77.92255574
      0.10000000	     14.14685250	      8.07729928	    -87.32792181	      0.51734021	      1.26576755	     -0.10779063	     11.97640366	    -30.97282761	    -39.88383583	      6.16454098	      0.10759154	    -49.93857238	     -5.63683331	     -7.48565210	     15.56786164	     18.74257788	    -39.91615533	      8.59591711	      0.15002706	    -21.33159153	    -34.78275420	     -7.48565210	     -0.80204819	    -12.99578322	     -8.70018717	      1.33939040	    -54.72266478	     73.56417868	     13.95730399	     52.06239403	      8.76153645	    -24.03308882	     56.34399202	     20.74533968	     56.38637770
      0.11666670	     15.68251129	      4.12777345	    -93.91800603	      0.50144183	      1.27381444	     -0.12303533	     14.20267718	    -31.94074333	    -39.91898699	      9.76427393	      0.17041873	    -49.93128672	     -9.80053431	     -7.49136521	     14.68667343	     16.08870080	    -39.94431820	     12.73459301	      0.22226058	    -17.93869520	    -34.85548561	     -7.49136521	     -6.28289372	    -14.42497255	     -7.57372098	     16.80839365	    -56.76407654	     90.48521427	     19.66089122	     53.32987763	     10.54574199	    -28.28546344	     64.37033291	     25.41846999	     54.83337380
